<svg xmlns="http://www.w3.org/2000/svg" xmlns:xlink="http://www.w3.org/1999/xlink" width="16px" height="16px" viewBox="0 0 16 16" version="1.1">
<g id="surface1">
<path style="fill:#fe3e57;" d="M 8 12.667969 C 8.367188 12.667969 8.667969 12.367188 8.667969 12 C 8.667969 11.632812 8.367188 11.332031 8 11.332031 C 7.632812 11.332031 7.332031 11.632812 7.332031 12 C 7.332031 12.367188 7.632812 12.667969 8 12.667969 Z M 11.332031 12.667969 C 11.703125 12.667969 12 12.367188 12 12 C 12 11.632812 11.703125 11.332031 11.332031 11.332031 C 10.964844 11.332031 10.667969 11.632812 10.667969 12 C 10.667969 12.367188 10.964844 12.667969 11.332031 12.667969 Z M 11.332031 10 C 11.703125 10 12 9.703125 12 9.332031 C 12 8.964844 11.703125 8.667969 11.332031 8.667969 C 10.964844 8.667969 10.667969 8.964844 10.667969 9.332031 C 10.667969 9.703125 10.964844 10 11.332031 10 Z M 8 10 C 8.367188 10 8.667969 9.703125 8.667969 9.332031 C 8.667969 8.964844 8.367188 8.667969 8 8.667969 C 7.632812 8.667969 7.332031 8.964844 7.332031 9.332031 C 7.332031 9.703125 7.632812 10 8 10 Z M 12.667969 2 L 12 2 L 12 1.332031 C 12 0.964844 11.703125 0.667969 11.332031 0.667969 C 10.964844 0.667969 10.667969 0.964844 10.667969 1.332031 L 10.667969 2 L 5.332031 2 L 5.332031 1.332031 C 5.332031 0.964844 5.035156 0.667969 4.667969 0.667969 C 4.296875 0.667969 4 0.964844 4 1.332031 L 4 2 L 3.332031 2 C 2.230469 2 1.332031 2.894531 1.332031 4 L 1.332031 13.332031 C 1.332031 14.4375 2.230469 15.332031 3.332031 15.332031 L 12.667969 15.332031 C 13.769531 15.332031 14.667969 14.4375 14.667969 13.332031 L 14.667969 4 C 14.667969 2.894531 13.769531 2 12.667969 2 Z M 13.332031 13.332031 C 13.332031 13.703125 13.035156 14 12.667969 14 L 3.332031 14 C 2.964844 14 2.667969 13.703125 2.667969 13.332031 L 2.667969 7.332031 L 13.332031 7.332031 Z M 13.332031 6 L 2.667969 6 L 2.667969 4 C 2.667969 3.632812 2.964844 3.332031 3.332031 3.332031 L 4 3.332031 L 4 4 C 4 4.367188 4.296875 4.667969 4.667969 4.667969 C 5.035156 4.667969 5.332031 4.367188 5.332031 4 L 5.332031 3.332031 L 10.667969 3.332031 L 10.667969 4 C 10.667969 4.367188 10.964844 4.667969 11.332031 4.667969 C 11.703125 4.667969 12 4.367188 12 4 L 12 3.332031 L 12.667969 3.332031 C 13.035156 3.332031 13.332031 3.632812 13.332031 4 Z M 4.667969 10 C 5.035156 10 5.332031 9.703125 5.332031 9.332031 C 5.332031 8.964844 5.035156 8.667969 4.667969 8.667969 C 4.296875 8.667969 4 8.964844 4 9.332031 C 4 9.703125 4.296875 10 4.667969 10 Z M 4.667969 12.667969 C 5.035156 12.667969 5.332031 12.367188 5.332031 12 C 5.332031 11.632812 5.035156 11.332031 4.667969 11.332031 C 4.296875 11.332031 4 11.632812 4 12 C 4 12.367188 4.296875 12.667969 4.667969 12.667969 Z M 4.667969 12.667969 "/>
</g>
</svg>
